<mxfile host="app.diagrams.net" modified="2024-03-09T12:47:40.825Z" agent="Mozilla/5.0 (Macintosh; Intel Mac OS X 10.15; rv:122.0) Gecko/20100101 Firefox/122.0" etag="KkMKOh6qPC8Y6wUGzaGF" version="24.0.3" type="github">
  <diagram name="Page-1" id="52a04d89-c75d-2922-d76d-85b35f80e030">
    <mxGraphModel dx="954" dy="572" grid="1" gridSize="10" guides="1" tooltips="1" connect="1" arrows="1" fold="1" page="1" pageScale="1" pageWidth="1100" pageHeight="850" background="none" math="0" shadow="0">
      <root>
        <mxCell id="0" />
        <mxCell id="1" parent="0" />
        <mxCell id="mssL97XS2WEy_WwJyNML-1" value="Identity Service" style="shape=cube;whiteSpace=wrap;html=1;boundedLbl=1;backgroundOutline=1;darkOpacity=0.05;darkOpacity2=0.1;" vertex="1" parent="1">
          <mxGeometry x="440" y="40" width="180" height="320" as="geometry" />
        </mxCell>
        <mxCell id="mssL97XS2WEy_WwJyNML-2" value="Actor" style="shape=umlActor;verticalLabelPosition=bottom;verticalAlign=top;html=1;outlineConnect=0;" vertex="1" parent="1">
          <mxGeometry x="80" y="10" width="30" height="60" as="geometry" />
        </mxCell>
        <mxCell id="mssL97XS2WEy_WwJyNML-3" value="FORM-Login&lt;br&gt;&lt;br&gt;Username&lt;br&gt;Password" style="shape=parallelogram;perimeter=parallelogramPerimeter;whiteSpace=wrap;html=1;fixedSize=1;" vertex="1" parent="1">
          <mxGeometry x="150" y="150" width="150" height="80" as="geometry" />
        </mxCell>
        <mxCell id="mssL97XS2WEy_WwJyNML-4" value="" style="endArrow=classic;html=1;rounded=0;exitX=1;exitY=0.5;exitDx=0;exitDy=0;" edge="1" parent="1" source="mssL97XS2WEy_WwJyNML-14">
          <mxGeometry width="50" height="50" relative="1" as="geometry">
            <mxPoint x="520" y="370" as="sourcePoint" />
            <mxPoint x="440" y="190" as="targetPoint" />
          </mxGeometry>
        </mxCell>
        <mxCell id="mssL97XS2WEy_WwJyNML-5" value="OAuth-Login" style="shape=parallelogram;perimeter=parallelogramPerimeter;whiteSpace=wrap;html=1;fixedSize=1;" vertex="1" parent="1">
          <mxGeometry x="150" y="250" width="140" height="80" as="geometry" />
        </mxCell>
        <mxCell id="mssL97XS2WEy_WwJyNML-6" value="" style="endArrow=classic;html=1;rounded=0;exitX=1;exitY=0.5;exitDx=0;exitDy=0;" edge="1" parent="1" source="mssL97XS2WEy_WwJyNML-16">
          <mxGeometry width="50" height="50" relative="1" as="geometry">
            <mxPoint x="520" y="370" as="sourcePoint" />
            <mxPoint x="438" y="290" as="targetPoint" />
          </mxGeometry>
        </mxCell>
        <mxCell id="mssL97XS2WEy_WwJyNML-7" value="" style="shape=cylinder3;whiteSpace=wrap;html=1;boundedLbl=1;backgroundOutline=1;size=15;" vertex="1" parent="1">
          <mxGeometry x="810" y="40" width="180" height="320" as="geometry" />
        </mxCell>
        <mxCell id="mssL97XS2WEy_WwJyNML-8" value="" style="shape=flexArrow;endArrow=classic;html=1;rounded=0;entryX=0;entryY=0.5;entryDx=0;entryDy=0;entryPerimeter=0;exitX=1.011;exitY=0.503;exitDx=0;exitDy=0;exitPerimeter=0;" edge="1" parent="1" source="mssL97XS2WEy_WwJyNML-18" target="mssL97XS2WEy_WwJyNML-7">
          <mxGeometry width="50" height="50" relative="1" as="geometry">
            <mxPoint x="520" y="260" as="sourcePoint" />
            <mxPoint x="570" y="210" as="targetPoint" />
          </mxGeometry>
        </mxCell>
        <mxCell id="mssL97XS2WEy_WwJyNML-9" value="" style="shape=flexArrow;endArrow=classic;html=1;rounded=0;exitX=-0.022;exitY=0.647;exitDx=0;exitDy=0;exitPerimeter=0;" edge="1" parent="1" source="mssL97XS2WEy_WwJyNML-20">
          <mxGeometry width="50" height="50" relative="1" as="geometry">
            <mxPoint x="511.98" y="300" as="sourcePoint" />
            <mxPoint x="621.98" y="290" as="targetPoint" />
          </mxGeometry>
        </mxCell>
        <mxCell id="mssL97XS2WEy_WwJyNML-10" value="FORM-registration&lt;br&gt;&lt;br&gt;Username&lt;br&gt;Password" style="shape=parallelogram;perimeter=parallelogramPerimeter;whiteSpace=wrap;html=1;fixedSize=1;" vertex="1" parent="1">
          <mxGeometry x="150" y="40" width="150" height="80" as="geometry" />
        </mxCell>
        <mxCell id="mssL97XS2WEy_WwJyNML-11" value="" style="endArrow=classic;html=1;rounded=0;exitX=1;exitY=0.5;exitDx=0;exitDy=0;" edge="1" parent="1" source="mssL97XS2WEy_WwJyNML-12">
          <mxGeometry width="50" height="50" relative="1" as="geometry">
            <mxPoint x="520" y="260" as="sourcePoint" />
            <mxPoint x="440" y="80" as="targetPoint" />
          </mxGeometry>
        </mxCell>
        <mxCell id="mssL97XS2WEy_WwJyNML-13" value="" style="endArrow=classic;html=1;rounded=0;exitX=1;exitY=0.5;exitDx=0;exitDy=0;" edge="1" parent="1" source="mssL97XS2WEy_WwJyNML-10" target="mssL97XS2WEy_WwJyNML-12">
          <mxGeometry width="50" height="50" relative="1" as="geometry">
            <mxPoint x="290" y="80" as="sourcePoint" />
            <mxPoint x="440" y="80" as="targetPoint" />
          </mxGeometry>
        </mxCell>
        <mxCell id="mssL97XS2WEy_WwJyNML-12" value="/registration" style="text;html=1;align=center;verticalAlign=middle;whiteSpace=wrap;rounded=0;" vertex="1" parent="1">
          <mxGeometry x="310" y="65" width="90" height="30" as="geometry" />
        </mxCell>
        <mxCell id="mssL97XS2WEy_WwJyNML-15" value="" style="endArrow=classic;html=1;rounded=0;exitX=1;exitY=0.5;exitDx=0;exitDy=0;" edge="1" parent="1" source="mssL97XS2WEy_WwJyNML-3" target="mssL97XS2WEy_WwJyNML-14">
          <mxGeometry width="50" height="50" relative="1" as="geometry">
            <mxPoint x="290" y="190" as="sourcePoint" />
            <mxPoint x="440" y="190" as="targetPoint" />
          </mxGeometry>
        </mxCell>
        <mxCell id="mssL97XS2WEy_WwJyNML-14" value="/login" style="text;html=1;align=center;verticalAlign=middle;whiteSpace=wrap;rounded=0;" vertex="1" parent="1">
          <mxGeometry x="325" y="175" width="60" height="30" as="geometry" />
        </mxCell>
        <mxCell id="mssL97XS2WEy_WwJyNML-17" value="" style="endArrow=classic;html=1;rounded=0;exitX=1;exitY=0.5;exitDx=0;exitDy=0;" edge="1" parent="1" source="mssL97XS2WEy_WwJyNML-5" target="mssL97XS2WEy_WwJyNML-16">
          <mxGeometry width="50" height="50" relative="1" as="geometry">
            <mxPoint x="280" y="290" as="sourcePoint" />
            <mxPoint x="438" y="290" as="targetPoint" />
          </mxGeometry>
        </mxCell>
        <mxCell id="mssL97XS2WEy_WwJyNML-16" value="/oauth" style="text;html=1;align=center;verticalAlign=middle;whiteSpace=wrap;rounded=0;" vertex="1" parent="1">
          <mxGeometry x="325" y="275" width="60" height="30" as="geometry" />
        </mxCell>
        <mxCell id="mssL97XS2WEy_WwJyNML-19" value="" style="shape=flexArrow;endArrow=classic;html=1;rounded=0;entryX=0;entryY=0.5;entryDx=0;entryDy=0;entryPerimeter=0;exitX=1.011;exitY=0.503;exitDx=0;exitDy=0;exitPerimeter=0;" edge="1" parent="1" source="mssL97XS2WEy_WwJyNML-1" target="mssL97XS2WEy_WwJyNML-18">
          <mxGeometry width="50" height="50" relative="1" as="geometry">
            <mxPoint x="622" y="201" as="sourcePoint" />
            <mxPoint x="810" y="200" as="targetPoint" />
          </mxGeometry>
        </mxCell>
        <mxCell id="mssL97XS2WEy_WwJyNML-18" value="insert/query User Data" style="text;html=1;align=center;verticalAlign=middle;whiteSpace=wrap;rounded=0;" vertex="1" parent="1">
          <mxGeometry x="680" y="185" width="60" height="30" as="geometry" />
        </mxCell>
        <mxCell id="mssL97XS2WEy_WwJyNML-21" value="" style="shape=flexArrow;endArrow=classic;html=1;rounded=0;exitX=0;exitY=0.759;exitDx=0;exitDy=0;exitPerimeter=0;" edge="1" parent="1" source="mssL97XS2WEy_WwJyNML-7" target="mssL97XS2WEy_WwJyNML-20">
          <mxGeometry width="50" height="50" relative="1" as="geometry">
            <mxPoint x="798.02" y="287.03999999999996" as="sourcePoint" />
            <mxPoint x="621.98" y="290" as="targetPoint" />
          </mxGeometry>
        </mxCell>
        <mxCell id="mssL97XS2WEy_WwJyNML-20" value="User result" style="text;html=1;align=center;verticalAlign=middle;whiteSpace=wrap;rounded=0;" vertex="1" parent="1">
          <mxGeometry x="671.98" y="270" width="80" height="30" as="geometry" />
        </mxCell>
        <mxCell id="mssL97XS2WEy_WwJyNML-22" value="Stores User Data" style="text;html=1;align=center;verticalAlign=middle;whiteSpace=wrap;rounded=0;" vertex="1" parent="1">
          <mxGeometry x="830" y="95" width="140" height="35" as="geometry" />
        </mxCell>
        <mxCell id="mssL97XS2WEy_WwJyNML-23" value="User" style="swimlane;fontStyle=0;childLayout=stackLayout;horizontal=1;startSize=26;fillColor=none;horizontalStack=0;resizeParent=1;resizeParentMax=0;resizeLast=0;collapsible=1;marginBottom=0;html=1;" vertex="1" parent="1">
          <mxGeometry x="820" y="130" width="160" height="104" as="geometry" />
        </mxCell>
        <mxCell id="mssL97XS2WEy_WwJyNML-24" value="uuid" style="text;strokeColor=none;fillColor=none;align=left;verticalAlign=top;spacingLeft=4;spacingRight=4;overflow=hidden;rotatable=0;points=[[0,0.5],[1,0.5]];portConstraint=eastwest;whiteSpace=wrap;html=1;" vertex="1" parent="mssL97XS2WEy_WwJyNML-23">
          <mxGeometry y="26" width="160" height="26" as="geometry" />
        </mxCell>
        <mxCell id="mssL97XS2WEy_WwJyNML-25" value="identifier" style="text;strokeColor=none;fillColor=none;align=left;verticalAlign=top;spacingLeft=4;spacingRight=4;overflow=hidden;rotatable=0;points=[[0,0.5],[1,0.5]];portConstraint=eastwest;whiteSpace=wrap;html=1;" vertex="1" parent="mssL97XS2WEy_WwJyNML-23">
          <mxGeometry y="52" width="160" height="26" as="geometry" />
        </mxCell>
        <mxCell id="mssL97XS2WEy_WwJyNML-26" value="&lt;div&gt;password hash&lt;/div&gt;" style="text;strokeColor=none;fillColor=none;align=left;verticalAlign=top;spacingLeft=4;spacingRight=4;overflow=hidden;rotatable=0;points=[[0,0.5],[1,0.5]];portConstraint=eastwest;whiteSpace=wrap;html=1;" vertex="1" parent="mssL97XS2WEy_WwJyNML-23">
          <mxGeometry y="78" width="160" height="26" as="geometry" />
        </mxCell>
      </root>
    </mxGraphModel>
  </diagram>
</mxfile>
